<mxfile host="app.diagrams.net" modified="2023-10-08T11:36:45.115Z" agent="Mozilla/5.0 (Windows NT 10.0; Win64; x64) AppleWebKit/537.36 (KHTML, like Gecko) Chrome/117.0.0.0 Safari/537.36" version="22.0.4" etag="BdtqoTIdUT8K7vJk4nVM" type="github">
  <diagram name="Sivu-1" id="7g86fKWf8yiXzhfGtATW">
    <mxGraphModel>
      <root>
        <mxCell id="0" />
        <mxCell id="1" parent="0" />
      </root>
    </mxGraphModel>
  </diagram>
</mxfile>
